<svg width="16" height="15" viewBox="0 0 16 15" fill="none" xmlns="http://www.w3.org/2000/svg">
<path d="M11.1918 4.0332H0.800001C0.587903 4.03345 0.384563 4.11782 0.234588 4.26779C0.0846119 4.41777 0.000247015 4.62111 0 4.8332V14.1999C0.000247015 14.412 0.0846119 14.6153 0.234588 14.7653C0.384563 14.9153 0.587903 14.9996 0.800001 14.9999H11.1918C11.4039 14.9996 11.6072 14.9153 11.7572 14.7653C11.9072 14.6153 11.9915 14.412 11.9918 14.1999V4.8332C11.9915 4.62111 11.9072 4.41777 11.7572 4.26779C11.6072 4.11782 11.4039 4.03345 11.1918 4.0332V4.0332ZM10.9251 5.09987V6.6072H1.06667V5.09987H10.9251ZM1.06667 13.9332V7.67387H10.9251V13.9332H1.06667Z" fill="#545454"/>
<path d="M15.1918 0H4.5251C4.313 0.000247015 4.10966 0.0846118 3.95969 0.234587C3.80971 0.384563 3.72534 0.587903 3.7251 0.8V2.96667H4.79176V1.06667H14.9251V10.2381H13.0584V11.3048H15.1918C15.4039 11.3045 15.6072 11.2202 15.7572 11.0702C15.9072 10.9202 15.9915 10.7169 15.9918 10.5048V0.8C15.9915 0.587903 15.9072 0.384563 15.7572 0.234587C15.6072 0.0846118 15.4039 0.000247015 15.1918 0V0Z" fill="#545454"/>
</svg>
