<svg width="15" height="15" viewBox="0 0 15 15" fill="none" xmlns="http://www.w3.org/2000/svg">
<path d="M3.90003 3.9001C3.90003 4.23197 4.16815 4.5001 4.50003 4.5001H10.5C10.8319 4.5001 11.1 4.23197 11.1 3.9001V1.3501H13.65V13.6501H1.35003V4.30885L3.90003 1.75885V3.9001ZM7.50003 11.5876C8.99065 11.5876 10.2 10.3782 10.2 8.8876C10.2 7.39697 8.99065 6.1876 7.50003 6.1876C6.0094 6.1876 4.80003 7.39697 4.80003 8.8876C4.80003 10.3782 6.0094 11.5876 7.50003 11.5876Z" fill="#FFFDFD" fill-opacity="0.15"/>
<path d="M7.50001 6.1875C8.99064 6.1875 10.2 7.39687 10.2 8.8875C10.2 10.3781 8.99064 11.5875 7.50001 11.5875C6.00939 11.5875 4.80001 10.3781 4.80001 8.8875C4.80001 7.39687 6.00939 6.1875 7.50001 6.1875ZM7.50001 10.3875C8.32876 10.3875 9.00001 9.71625 9.00001 8.8875C9.00001 8.05875 8.32876 7.3875 7.50001 7.3875C6.67126 7.3875 6.00001 8.05875 6.00001 8.8875C6.00001 9.71625 6.67126 10.3875 7.50001 10.3875Z" fill="#545454"/>
<path d="M0.350625 3.39937L3.39937 0.350625C3.4125 0.3375 3.42562 0.32625 3.43875 0.313125C3.44062 0.31125 3.44437 0.309375 3.44625 0.3075C3.45937 0.294375 3.47437 0.283125 3.4875 0.271875C3.6093 0.172431 3.74945 0.0978933 3.9 0.0525001V0H14.4C14.7319 0 15 0.268125 15 0.6V14.4C15 14.7319 14.7319 15 14.4 15H0.599999C0.268124 15 -5.96046e-07 14.7319 -5.96046e-07 14.4V4.24688C-5.96046e-07 3.92813 0.125625 3.62437 0.350625 3.39937ZM9.9 1.35H5.1V3.3H9.9V1.35ZM1.35 13.65H13.65V1.35H11.1V3.9C11.1 4.23188 10.8319 4.5 10.5 4.5H4.5C4.16812 4.5 3.9 4.23188 3.9 3.9V1.75875L1.35 4.30875V13.65Z" fill="#545454"/>
</svg>
