<?xml version="1.0" standalone="no"?><!DOCTYPE svg PUBLIC "-//W3C//DTD SVG 1.1//EN" "http://www.w3.org/Graphics/SVG/1.1/DTD/svg11.dtd"><svg t="1652143613551" class="icon" viewBox="0 0 1024 1024" version="1.1" xmlns="http://www.w3.org/2000/svg" p-id="1887" width="32" height="32" xmlns:xlink="http://www.w3.org/1999/xlink"><defs><style type="text/css">@font-face { font-family: feedback-iconfont; src: url("//at.alicdn.com/t/font_1031158_u69w8yhxdu.woff2?t=1630033759944") format("woff2"), url("//at.alicdn.com/t/font_1031158_u69w8yhxdu.woff?t=1630033759944") format("woff"), url("//at.alicdn.com/t/font_1031158_u69w8yhxdu.ttf?t=1630033759944") format("truetype"); }
</style></defs><path d="M970.745 459.367 566.614 459.367 566.614 55.251C566.614 25.842 542.771 2 513.361 2c-29.411 0-53.253 23.841-53.253 53.251l0 404.116L55.975 459.367c-29.411 0-53.253 23.841-53.253 53.25 0 29.41 23.842 53.253 53.253 53.253l404.133 0 0 404.115c0 29.407 23.842 53.249 53.253 53.249 29.41 0 53.253-23.842 53.253-53.249L566.614 565.87l404.131 0c29.413 0 53.255-23.843 53.255-53.253C1024 483.208 1000.158 459.367 970.745 459.367z" p-id="1888" fill="#ffffff"></path></svg>