<?xml version="1.0" encoding="utf-8"?>
<svg version="1.1" xmlns:xlink="http://www.w3.org/1999/xlink" width="25px" height="25px" xmlns="http://www.w3.org/2000/svg">
  <g transform="matrix(1 0 0 1 -10 -80 )">
    <path d="M 6.25 16.6666666666667  L 6.25 23  L 18.75 23  L 18.75 16.6666666666667  L 6.25 16.6666666666667  Z M 20.8333333333333 16.1458333333333  L 20.8333333333333 22.9166666666667  L 23 22.9166666666667  L 23 8.33333333333333  C 22.9166666666667 8.18142361111111  22.8624131944444 7.97254774305556  22.75390625 7.70670572916667  C 22.6453993055556 7.44086371527778  22.5368923611111 7.25368923611111  22.4283854166667 7.14518229166667  L 17.8548177083333 2.57161458333333  C 17.7463107638889 2.46310763888889  17.5618489583333 2.35460069444444  17.3014322916667 2.24609375  C 17.041015625 2.13758680555556  16.8294270833333 2.08333333333333  16.6666666666667 2.08333333333333  L 16.6666666666667 8.85416666666667  C 16.6666666666667 9.28819444444444  16.5147569444444 9.65711805555556  16.2109375 9.9609375  C 15.9071180555556 10.2647569444444  15.5381944444444 10.4166666666667  15.1041666666667 10.4166666666667  L 5.72916666666667 10.4166666666667  C 5.29513888888889 10.4166666666667  4.92621527777778 10.2647569444444  4.62239583333333 9.9609375  C 4.31857638888889 9.65711805555556  4.16666666666667 9.28819444444444  4.16666666666667 8.85416666666667  L 4.16666666666667 2.08333333333333  L 2 2.08333333333333  L 2 22.9166666666667  L 4.16666666666667 22.9166666666667  L 4.16666666666667 16.1458333333333  C 4.16666666666667 15.7118055555556  4.31857638888889 15.3428819444444  4.62239583333333 15.0390625  C 4.92621527777778 14.7352430555556  5.29513888888889 14.5833333333333  5.72916666666667 14.5833333333333  L 19.2708333333333 14.5833333333333  C 19.7048611111111 14.5833333333333  20.0737847222222 14.7352430555556  20.3776041666667 15.0390625  C 20.6814236111111 15.3428819444444  20.8333333333333 15.7118055555556  20.8333333333333 16.1458333333333  Z M 14.4287109375 8.1787109375  C 14.5317925347222 8.07562934027778  14.5833333333333 7.95355902777778  14.5833333333333 7.8125  L 14.5833333333333 2.60416666666667  C 14.5833333333333 2.46310763888889  14.5317925347222 2.34103732638889  14.4287109375 2.23795572916667  C 14.3256293402778 2.13487413194444  14.2035590277778 2.08333333333333  14.0625 2.08333333333333  L 10.9375 2.08333333333333  C 10.7964409722222 2.08333333333333  10.6743706597222 2.13487413194444  10.5712890625 2.23795572916667  C 10.4682074652778 2.34103732638889  10.4166666666667 2.46310763888889  10.4166666666667 2.60416666666667  L 10.4166666666667 7.8125  C 10.4166666666667 7.95355902777778  10.4682074652778 8.07562934027778  10.5712890625 8.1787109375  C 10.6743706597222 8.28179253472222  10.7964409722222 8.33333333333333  10.9375 8.33333333333333  L 14.0625 8.33333333333333  C 14.2035590277778 8.33333333333333  14.3256293402778 8.28179253472222  14.4287109375 8.1787109375  Z M 24.6744791666667 6.90104166666667  C 24.8914930555556 7.421875  25 7.89930555555556  25 8.33333333333333  L 25 23.4375  C 25 23.8715277777778  24.8480902777778 24.2404513888889  24.5442708333333 24.5442708333333  C 24.2404513888889 24.8480902777778  23.8715277777778 25  23.4375 25  L 1.5625 25  C 1.12847222222222 25  0.759548611111111 24.8480902777778  0.455729166666667 24.5442708333333  C 0.151909722222222 24.2404513888889  0 23.8715277777778  0 23.4375  L 0 1.5625  C 0 1.12847222222222  0.151909722222222 0.759548611111108  0.455729166666667 0.455729166666666  C 0.759548611111111 0.151909722222221  1.12847222222222 0  1.5625 0  L 16.6666666666667 0  C 17.1006944444444 0  17.578125 0.108506944444442  18.0989583333333 0.325520833333334  C 18.6197916666667 0.542534722222221  19.0321180555556 0.802951388888887  19.3359375 1.10677083333333  L 23.8932291666667 5.6640625  C 24.1970486111111 5.96788194444444  24.4574652777778 6.38020833333333  24.6744791666667 6.90104166666667  Z " fill-rule="nonzero" fill="#ffffff" stroke="none" transform="matrix(1 0 0 1 10 80 )" />
  </g>
</svg>