<?xml version="1.0" encoding="utf-8"?>
<svg version="1.1" xmlns:xlink="http://www.w3.org/1999/xlink" width="25px" height="26px" xmlns="http://www.w3.org/2000/svg">
  <g transform="matrix(1 0 0 1 -10 -125 )">
    <path d="M 24.8674665178571 16.8980654761905  C 24.9558221726191 17.0205853174603  25 17.1656746031746  25 17.3333333333333  L 25 21.047619047619  C 25 21.2152777777778  24.9558221726191 21.3603670634921  24.8674665178571 21.4828869047619  C 24.7791108630952 21.6054067460317  24.6744791666667 21.6666666666667  24.5535714285714 21.6666666666667  L 5.35714285714286 21.6666666666667  L 5.35714285714286 25.3809523809524  C 5.35714285714286 25.5486111111111  5.31296502976191 25.6937003968254  5.224609375 25.8162202380952  C 5.13625372023809 25.9387400793651  5.03162202380952 26  4.91071428571429 26  C 4.79910714285714 26  4.6875 25.9355158730159  4.57589285714286 25.8065476190476  L 0.125558035714286 19.6160714285714  C 0.0418526785714286 19.5  0 19.3581349206349  0 19.1904761904762  C 0 19.0099206349206  0.0418526785714286 18.8616071428571  0.125558035714286 18.7455357142857  L 4.58984375 12.5550595238095  C 4.67354910714286 12.4389880952381  4.78050595238095 12.3809523809524  4.91071428571429 12.3809523809524  C 5.03162202380952 12.3809523809524  5.13625372023809 12.4422123015873  5.224609375 12.5647321428571  C 5.31296502976191 12.687251984127  5.35714285714286 12.8323412698413  5.35714285714286 13  L 5.35714285714286 16.7142857142857  L 24.5535714285714 16.7142857142857  C 24.6744791666667 16.7142857142857  24.7791108630952 16.7755456349206  24.8674665178571 16.8980654761905  Z M 24.8744419642857 6.36458333333333  C 24.9581473214286 6.48065476190476  25 6.62896825396825  25 6.80952380952381  C 25 6.99007936507936  24.9581473214286 7.13839285714286  24.8744419642857 7.25446428571428  L 20.41015625 13.4449404761905  C 20.3264508928571 13.5610119047619  20.2194940476191 13.6190476190476  20.0892857142857 13.6190476190476  C 19.9683779761905 13.6190476190476  19.8637462797619 13.5577876984127  19.775390625 13.4352678571429  C 19.6870349702381 13.312748015873  19.6428571428571 13.1676587301587  19.6428571428571 13  L 19.6428571428571 9.28571428571428  L 0.446428571428571 9.28571428571428  C 0.325520833333333 9.28571428571428  0.220889136904762 9.22445436507937  0.132533482142857 9.10193452380952  C 0.0441778273809524 8.97941468253968  0 8.8343253968254  0 8.66666666666667  L 0 4.95238095238095  C 0 4.78472222222222  0.0441778273809524 4.63963293650794  0.132533482142857 4.5171130952381  C 0.220889136904762 4.39459325396825  0.325520833333333 4.33333333333333  0.446428571428571 4.33333333333333  L 19.6428571428571 4.33333333333333  L 19.6428571428571 0.61904761904762  C 19.6428571428571 0.438492063492062  19.6847098214286 0.290178571428572  19.7684151785714 0.174107142857144  C 19.8521205357143 0.0580357142857155  19.9590773809524 0  20.0892857142857 0  C 20.2008928571429 0  20.3125 0.0644841269841268  20.4241071428571 0.19345238095238  L 24.8744419642857 6.36458333333333  Z " fill-rule="nonzero" fill="#ffffff" stroke="none" transform="matrix(1 0 0 1 10 125 )" />
  </g>
</svg>