<?xml version="1.0" encoding="utf-8"?>
<svg version="1.1" xmlns:xlink="http://www.w3.org/1999/xlink" width="25px" height="29px" xmlns="http://www.w3.org/2000/svg">
  <g transform="matrix(1 0 0 1 -10 -171 )">
    <path d="M 18.8151041666667 1.10044642857143  L 23.8932291666667 6.14955357142857  C 24.1970486111111 6.4516369047619  24.4574652777778 6.86160714285714  24.6744791666667 7.37946428571429  C 24.8914930555556 7.89732142857143  25 8.37202380952381  25 8.80357142857143  L 25 27.4464285714286  C 25 27.8779761904762  24.8480902777778 28.2447916666667  24.5442708333333 28.546875  C 24.2404513888889 28.8489583333333  23.8715277777778 29  23.4375 29  L 1.5625 29  C 1.12847222222222 29  0.759548611111111 28.8489583333333  0.455729166666667 28.546875  C 0.151909722222222 28.2447916666667  0 27.8779761904762  0 27.4464285714286  L 0 1.55357142857143  C 0 1.12202380952381  0.151909722222222 0.755208333333332  0.455729166666667 0.453125  C 0.759548611111111 0.151041666666668  1.12847222222222 0  1.5625 0  L 16.1458333333333 0  C 16.5798611111111 0  17.0572916666667 0.107886904761906  17.578125 0.323660714285715  C 18.0989583333333 0.539434523809524  18.5112847222222 0.798363095238094  18.8151041666667 1.10044642857143  Z M 17.333984375 2.55691964285714  C 17.2037760416667 2.42745535714286  16.9813368055556 2.30877976190476  16.6666666666667 2.20089285714286  L 16.6666666666667 8.28571428571428  L 22.7864583333333 8.28571428571428  C 22.6779513888889 7.97284226190476  22.55859375 7.75167410714286  22.4283854166667 7.62220982142857  L 17.333984375 2.55691964285714  Z M 2 27  L 23 27  L 23 10.3571428571429  L 16.1458333333333 10.3571428571429  C 15.7118055555556 10.3571428571429  15.3428819444444 10.2061011904762  15.0390625 9.90401785714286  C 14.7352430555556 9.60193452380952  14.5833333333333 9.23511904761904  14.5833333333333 8.80357142857143  L 14.5833333333333 2  L 2 2  L 2 27  Z M 15.625 14.5  L 20.8333333333333 19.6785714285714  L 20.8333333333333 24.8571428571429  L 4.16666666666667 24.8571428571429  L 4.16666666666667 21.75  L 7.29166666666667 18.6428571428571  L 9.375 20.7142857142857  L 15.625 14.5  Z M 9.50520833333333 15.6651785714286  C 8.89756944444445 16.2693452380952  8.15972222222222 16.5714285714286  7.29166666666667 16.5714285714286  C 6.42361111111111 16.5714285714286  5.68576388888889 16.2693452380952  5.078125 15.6651785714286  C 4.47048611111111 15.0610119047619  4.16666666666667 14.3273809523809  4.16666666666667 13.4642857142857  C 4.16666666666667 12.6011904761905  4.47048611111111 11.8675595238095  5.078125 11.2633928571429  C 5.68576388888889 10.6592261904762  6.42361111111111 10.3571428571429  7.29166666666667 10.3571428571429  C 8.15972222222222 10.3571428571429  8.89756944444445 10.6592261904762  9.50520833333333 11.2633928571429  C 10.1128472222222 11.8675595238095  10.4166666666667 12.6011904761905  10.4166666666667 13.4642857142857  C 10.4166666666667 14.3273809523809  10.1128472222222 15.0610119047619  9.50520833333333 15.6651785714286  Z " fill-rule="nonzero" fill="#ffffff" stroke="none" transform="matrix(1 0 0 1 10 171 )" />
  </g>
</svg>